<svg width="17" height="20" viewBox="0 0 17 20" fill="none" xmlns="http://www.w3.org/2000/svg">
<path fill-rule="evenodd" clip-rule="evenodd" d="M14.1667 20H2.5C1.58 20 0.833333 19.2533 0.833333 18.3333V4.16667H0V2.5H5V1.25C5 0.560833 5.56083 0 6.25 0H10.4167C11.1042 0 11.6667 0.559167 11.6667 1.25V2.5H16.6667V4.16667H15.8333V18.3333C15.8333 19.2533 15.0867 20 14.1667 20ZM14.1667 4.16667H2.5V17.9167C2.5 18.1467 2.68667 18.3333 2.91667 18.3333H13.75C13.98 18.3333 14.1667 18.1467 14.1667 17.9167V4.16667ZM6.66667 7.5C6.66667 7.04 6.29333 6.66667 5.83333 6.66667C5.37333 6.66667 5 7.04 5 7.5V15C5 15.46 5.37333 15.8333 5.83333 15.8333C6.29333 15.8333 6.66667 15.46 6.66667 15V7.5ZM11.6667 7.5C11.6667 7.04 11.2933 6.66667 10.8333 6.66667C10.3733 6.66667 10 7.04 10 7.5V15C10 15.46 10.3733 15.8333 10.8333 15.8333C11.2933 15.8333 11.6667 15.46 11.6667 15V7.5ZM10 1.66667H6.66667V2.5H10V1.66667Z" fill="black"/>
</svg>
