<svg width="24" height="24" viewBox="0 0 24 24" fill="none" xmlns="http://www.w3.org/2000/svg">
<path d="M21.913 0H2.08696C1.53365 0.000461053 1.00319 0.163742 0.611942 0.454021C0.220696 0.7443 0.00062142 1.13787 0 1.54839V20.9032C0.000559379 21.2464 0.154508 21.5798 0.43774 21.8511C0.720973 22.1225 1.11749 22.3165 1.56522 22.4027V23.6129C1.56522 23.7156 1.62019 23.814 1.71803 23.8866C1.81588 23.9592 1.94858 24 2.08696 24H3.65217C3.76852 24 3.88152 23.9711 3.97322 23.918C4.06492 23.8649 4.13005 23.7905 4.15826 23.7068L4.58152 22.4516H19.4185L19.8417 23.7068C19.87 23.7905 19.9351 23.8649 20.0268 23.918C20.1185 23.9711 20.2315 24 20.3478 24H21.913C22.0514 24 22.1841 23.9592 22.282 23.8866C22.3798 23.814 22.4348 23.7156 22.4348 23.6129V22.4027C22.8825 22.3165 23.279 22.1225 23.5623 21.8511C23.8455 21.5798 23.9994 21.2464 24 20.9032V1.54839C23.9994 1.13787 23.7793 0.7443 23.3881 0.454021C22.9968 0.163742 22.4663 0.000461053 21.913 0V0ZM3.24457 23.2258H2.6087V22.4516H3.50543L3.24457 23.2258ZM21.3913 23.2258H20.7554L20.4946 22.4516H21.3913V23.2258ZM22.9565 20.9032C22.9562 21.1085 22.8461 21.3052 22.6505 21.4504C22.4549 21.5955 22.1897 21.6771 21.913 21.6774H2.08696C1.81032 21.6771 1.54512 21.5955 1.34951 21.4504C1.15389 21.3052 1.04384 21.1085 1.04348 20.9032V1.54839C1.04384 1.34314 1.15389 1.14638 1.34951 1.00125C1.54512 0.856115 1.81032 0.774462 2.08696 0.774194H21.913C22.1897 0.774462 22.4549 0.856115 22.6505 1.00125C22.8461 1.14638 22.9562 1.34314 22.9565 1.54839V20.9032Z" fill="black"/>
<path d="M21.3913 1.54834H2.60865C2.47028 1.54834 2.33757 1.58912 2.23973 1.66172C2.14188 1.73431 2.08691 1.83277 2.08691 1.93544V20.5161C2.08691 20.6187 2.14188 20.7172 2.23973 20.7898C2.33757 20.8624 2.47028 20.9032 2.60865 20.9032H21.3913C21.5296 20.9032 21.6623 20.8624 21.7602 20.7898C21.858 20.7172 21.913 20.6187 21.913 20.5161V1.93544C21.913 1.83277 21.858 1.73431 21.7602 1.66172C21.6623 1.58912 21.5296 1.54834 21.3913 1.54834ZM11.4782 20.129H3.13039V2.32253H11.4782V20.129ZM20.8695 20.129H12.5217V2.32253H20.8695V20.129Z" fill="black"/>
<path d="M9.3909 10.0645C9.08133 10.0645 8.77871 10.1326 8.52131 10.2602C8.26392 10.3878 8.0633 10.5691 7.94483 10.7813C7.82636 10.9935 7.79537 11.227 7.85576 11.4523C7.91615 11.6776 8.06523 11.8845 8.28413 12.0469C8.50303 12.2093 8.78192 12.3199 9.08554 12.3647C9.38917 12.4095 9.70388 12.3865 9.98988 12.2986C10.2759 12.2107 10.5203 12.0619 10.6923 11.8709C10.8643 11.6799 10.9561 11.4554 10.9561 11.2257C10.9557 10.9179 10.7906 10.6227 10.4972 10.405C10.2037 10.1873 9.80588 10.0648 9.3909 10.0645V10.0645ZM9.3909 11.6128C9.28771 11.6128 9.18684 11.5901 9.10104 11.5476C9.01524 11.5051 8.94837 11.4446 8.90888 11.3739C8.86939 11.3031 8.85906 11.2253 8.87919 11.1502C8.89932 11.0751 8.94901 11.0062 9.02198 10.952C9.09494 10.8979 9.18791 10.861 9.28912 10.8461C9.39032 10.8311 9.49523 10.8388 9.59056 10.8681C9.6859 10.8974 9.76738 10.947 9.82471 11.0107C9.88204 11.0743 9.91264 11.1492 9.91264 11.2257C9.91249 11.3284 9.85747 11.4268 9.75966 11.4993C9.66184 11.5719 9.52923 11.6127 9.3909 11.6128V11.6128Z" fill="black"/>
<path d="M14.6087 12.387C14.9182 12.387 15.2209 12.3189 15.4783 12.1913C15.7357 12.0637 15.9363 11.8823 16.0547 11.6702C16.1732 11.458 16.2042 11.2245 16.1438 10.9992C16.0834 10.7739 15.9343 10.567 15.7154 10.4046C15.4966 10.2422 15.2177 10.1316 14.914 10.0868C14.6104 10.042 14.2957 10.065 14.0097 10.1529C13.7237 10.2407 13.4792 10.3896 13.3072 10.5806C13.1353 10.7715 13.0435 10.9961 13.0435 11.2257C13.0439 11.5336 13.209 11.8288 13.5024 12.0465C13.7958 12.2642 14.1937 12.3867 14.6087 12.387V12.387ZM14.6087 10.8386C14.7119 10.8386 14.8127 10.8613 14.8985 10.9039C14.9843 10.9464 15.0512 11.0069 15.0907 11.0776C15.1302 11.1483 15.1405 11.2262 15.1204 11.3013C15.1003 11.3764 15.0506 11.4453 14.9776 11.4995C14.9046 11.5536 14.8117 11.5905 14.7105 11.6054C14.6093 11.6203 14.5043 11.6127 14.409 11.5834C14.3137 11.5541 14.2322 11.5045 14.1749 11.4408C14.1175 11.3771 14.0869 11.3023 14.0869 11.2257C14.0871 11.1231 14.1421 11.0247 14.2399 10.9522C14.3377 10.8796 14.4703 10.8388 14.6087 10.8386Z" fill="black"/>
</svg>
