<svg width="24" height="24" viewBox="0 0 24 24" fill="none" xmlns="http://www.w3.org/2000/svg">
<path d="M14.911 10C14.603 13.325 13.513 15.712 11.962 18H7.037C5.664 15.991 4.425 13.628 4.089 10H14.911ZM17 8H2C2 13.716 3.826 16.996 6 20H13C15.12 17.089 17 13.667 17 8ZM18.119 10C18.062 10.701 17.978 11.367 17.867 12H19.417C18.968 13.29 17.917 14.478 17.118 14.914C16.76 15.952 16.331 16.895 15.858 17.766C19.132 16.623 21.704 13.257 22 10H18.119V10ZM10.374 6.999C15.111 2.729 9.394 2.955 10.491 0C6.708 3.817 11.9 3.902 10.374 6.999ZM7.594 7C10.748 4.175 6.93 3.898 7.681 1.901C5.039 4.688 8.631 4.76 7.594 7ZM17 22H2V24H17V22Z" fill="black"/>
</svg>
