<svg width="24" height="24" viewBox="0 0 24 24" fill="none" xmlns="http://www.w3.org/2000/svg">
<path d="M23.5714 23.2H21V0.399984C21 0.159984 20.8286 0 20.5715 0H3.42854C3.1714 0 2.99999 0.159984 2.99999 0.399984V23.2H0.428555C0.171412 23.2 0 23.36 0 23.6C0 23.84 0.171412 24 0.428555 24H3.42854H5.14281H18.8571H20.5714H23.5714C23.8286 24 24 23.84 24 23.6C24 23.36 23.8286 23.2 23.5714 23.2ZM5.57142 23.2V2.4H18.4286V23.2H5.57142ZM19.2857 23.2V2.00002C19.2857 1.76002 19.1143 1.60003 18.8572 1.60003H5.14286C4.88572 1.60003 4.71431 1.76002 4.71431 2.00002V23.2H3.85715V0.800016H20.1429V23.2H19.2857V23.2Z" fill="black"/>
<path d="M17.1429 11.6001H15.4286C15.1715 11.6001 15.0001 11.7601 15.0001 12.0001V12.4001H14.1429C13.8858 12.4001 13.7144 12.5601 13.7144 12.8001C13.7144 13.0401 13.8858 13.2 14.1429 13.2H15.0001V13.6C15.0001 13.84 15.1715 14 15.4286 14H17.1429C17.4 14 17.5715 13.84 17.5715 13.6V12.0001C17.5715 11.7601 17.4 11.6001 17.1429 11.6001ZM16.7143 13.2001H15.8572V12.4001H16.7143V13.2001Z" fill="black"/>
</svg>
