<svg width="24" height="24" viewBox="0 0 24 24" fill="none" xmlns="http://www.w3.org/2000/svg">
<path d="M22.5938 0H14.1094C13.8505 0 13.6406 0.209839 13.6406 0.46875C13.6406 0.727661 13.8505 0.9375 14.1094 0.9375H22.5938C22.8523 0.9375 23.0625 1.14771 23.0625 1.40625V4.03125C23.0625 4.28979 22.8523 4.5 22.5938 4.5H1.40625C1.14771 4.5 0.9375 4.28979 0.9375 4.03125V1.40625C0.9375 1.14771 1.14771 0.9375 1.40625 0.9375H9.89062C10.1495 0.9375 10.3594 0.727661 10.3594 0.46875C10.3594 0.209839 10.1495 0 9.89062 0H1.40625C0.630798 0 0 0.630798 0 1.40625V4.03125C0 4.8067 0.630798 5.4375 1.40625 5.4375V23.0625H0.46875C0.209839 23.0625 0 23.2723 0 23.5312C0 23.7902 0.209839 24 0.46875 24H23.5312C23.7902 24 24 23.7902 24 23.5312C24 23.2723 23.7902 23.0625 23.5312 23.0625H22.5938V5.4375C23.3692 5.4375 24 4.8067 24 4.03125V1.40625C24 0.630798 23.3692 0 22.5938 0ZM2.34375 18.375H4.5V23.0625H2.34375V18.375ZM11.8206 16.933C11.9958 17.0056 12.1974 16.9655 12.3314 16.8314L13.7573 15.4058L15.002 17.0651C15.4913 17.7171 15.75 18.4942 15.75 19.3125C15.75 20.7217 14.9683 21.9512 13.816 22.5919C13.8545 22.4425 13.875 22.2861 13.875 22.125C13.875 21.7965 13.7886 21.473 13.6247 21.1884L12.4059 19.0781C12.3221 18.9331 12.1674 18.8438 12 18.8438C11.8326 18.8438 11.6779 18.9331 11.5941 19.0781L10.3751 21.1888C10.2114 21.473 10.125 21.7965 10.125 22.125C10.125 22.2861 10.1455 22.4425 10.184 22.5919C9.03168 21.9512 8.25 20.7217 8.25 19.3125C8.25 18.4942 8.50873 17.7171 8.99817 17.0649L11.5312 13.6875V16.5C11.5312 16.6895 11.6455 16.8605 11.8206 16.933V16.933ZM11.0625 22.125C11.0625 21.9606 11.1057 21.7987 11.1872 21.6572L12 20.2498L12.8126 21.6568C12.8943 21.7987 12.9375 21.9606 12.9375 22.125C12.9375 22.6419 12.5169 23.0625 12 23.0625C11.4831 23.0625 11.0625 22.6419 11.0625 22.125ZM16.6875 19.3125C16.6875 18.2897 16.364 17.3179 15.7518 16.5024L14.183 14.4108C14.1013 14.302 13.9768 14.2341 13.8411 14.2244C13.7058 14.2148 13.5727 14.2645 13.4766 14.3606L12.4688 15.3684V12.2812C12.4688 12.0795 12.3397 11.9004 12.1481 11.8365C11.957 11.7728 11.746 11.8385 11.625 12L8.24817 16.5022C7.63605 17.3179 7.3125 18.2897 7.3125 19.3125C7.3125 20.8442 8.05096 22.2067 9.19061 23.0625H5.4375V16.5C5.4375 12.8815 8.38147 9.9375 12 9.9375C15.6185 9.9375 18.5625 12.8815 18.5625 16.5V23.0625H14.8094C15.949 22.2067 16.6875 20.8442 16.6875 19.3125V19.3125ZM19.5 23.0625V19.7812H21.6562V23.0625H19.5ZM21.6562 7.59375H17.625C17.3661 7.59375 17.1562 7.80359 17.1562 8.0625C17.1562 8.32141 17.3661 8.53125 17.625 8.53125H21.6562V10.4062H20.4375C20.1786 10.4062 19.9688 10.6161 19.9688 10.875C19.9688 11.1339 20.1786 11.3438 20.4375 11.3438H21.6562V18.8438H19.5V16.5C19.5 12.3646 16.1356 9 12 9C7.86438 9 4.5 12.3646 4.5 16.5V17.4375H2.34375V11.3438H3.5625C3.82141 11.3438 4.03125 11.1339 4.03125 10.875C4.03125 10.6161 3.82141 10.4062 3.5625 10.4062H2.34375V8.53125H6.375C6.63391 8.53125 6.84375 8.32141 6.84375 8.0625C6.84375 7.80359 6.63391 7.59375 6.375 7.59375H2.34375V5.4375H21.6562V7.59375Z" fill="black"/>
</svg>
