<svg width="24" height="24" viewBox="0 0 24 24" fill="none" xmlns="http://www.w3.org/2000/svg">
<path d="M23.0527 1.52644L19.1563 2.58909C17.8707 2.13248 11.6062 0 6.75 0C3.02803 0 0 3.02803 0 6.75C0 9.79303 2.02425 12.3718 4.79681 13.2115L7.02328 21.5603C7.40644 22.997 8.71069 24 10.1986 24C12.3589 24 13.9305 21.9541 13.3739 19.8669L11.5396 12.9876C15.0474 12.3265 18.274 11.2243 19.1563 10.9109C23.4075 12.0703 23.1066 12 23.25 12C23.6643 12 24 11.6638 24 11.25V2.25C24 1.7558 23.5295 1.39641 23.0527 1.52644V1.52644ZM1.5 6.75C1.5 3.85514 3.85514 1.5 6.75 1.5C11.0262 1.5 16.692 3.32855 18.375 3.90623V9.59381C16.692 10.1715 11.0262 12 6.75 12C3.85514 12 1.5 9.64486 1.5 6.75ZM11.9245 20.2534C12.2269 21.3875 11.3733 22.5 10.1986 22.5C9.3915 22.5 8.68219 21.9598 8.47266 21.1738L6.42408 13.492C7.46616 13.5418 9.01434 13.3866 10.0535 13.2362L11.9245 20.2534ZM22.5 10.2681L19.875 9.55219V3.94786L22.5 3.23198V10.2681Z" fill="black"/>
<path d="M10.125 6.75C10.125 4.88902 8.61098 3.375 6.75 3.375C4.88902 3.375 3.375 4.88902 3.375 6.75C3.375 8.61098 4.88902 10.125 6.75 10.125C8.61098 10.125 10.125 8.61098 10.125 6.75ZM4.875 6.75C4.875 5.71613 5.71613 4.875 6.75 4.875C7.78387 4.875 8.625 5.71613 8.625 6.75C8.625 7.78387 7.78387 8.625 6.75 8.625C5.71613 8.625 4.875 7.78387 4.875 6.75Z" fill="black"/>
</svg>
