<svg width="24" height="24" viewBox="0 0 24 24" fill="none" xmlns="http://www.w3.org/2000/svg">
<path d="M23.5319 16.8813L20.7466 15.4739L23.1603 14.2283C23.6055 13.9985 23.7536 13.4964 23.4911 13.1068C23.2285 12.7173 22.655 12.5877 22.2096 12.8173L18.8847 14.5332L13.8715 11.9999L18.8839 9.46717L22.2098 11.1828C22.3589 11.2598 22.5226 11.2963 22.684 11.2963C23.0044 11.2963 23.3165 11.1521 23.4911 10.893C23.7534 10.5034 23.6052 10.0013 23.16 9.77151L20.7459 8.52631L23.5319 7.11861C23.9794 6.89246 24.1328 6.39156 23.8744 5.99986C23.616 5.60805 23.0436 5.47385 22.5961 5.70011L19.8108 7.10758L19.7855 4.65485C19.7808 4.20255 19.3569 3.83706 18.8413 3.84328C18.3245 3.84732 17.9093 4.21729 17.914 4.66959L17.9488 8.04834L12.9359 10.5814V5.51567L16.2968 3.85322C16.7468 3.63067 16.9053 3.13108 16.6511 2.7372C16.3968 2.34342 15.8258 2.20452 15.3759 2.42718L12.9359 3.63416V0.818997C12.9359 0.366692 12.5169 0 12.0001 0C11.4833 0 11.0643 0.366692 11.0643 0.818997V3.63416L8.62424 2.42729C8.17406 2.20463 7.60348 2.34342 7.34907 2.73731C7.09478 3.13108 7.25337 3.63078 7.7033 3.85333L11.0641 5.51578V10.5814L6.05119 8.04834L6.086 4.66959C6.09074 4.21729 5.6755 3.84732 5.1587 3.84328C5.15583 3.84328 5.15308 3.84328 5.15009 3.84328C4.63728 3.84328 4.21917 4.20506 4.21455 4.65496L4.18922 7.10758L1.40394 5.70011C0.956381 5.47385 0.384053 5.60816 0.12565 5.99986C-0.132753 6.39156 0.020592 6.89246 0.468149 7.11861L3.25393 8.52631L0.83947 9.77173C0.394284 10.0014 0.246055 10.5035 0.50845 10.8932C0.683006 11.1523 0.995061 11.2965 1.3156 11.2965C1.47705 11.2965 1.64063 11.2599 1.78986 11.183L5.11615 9.46739L10.1286 12.0002L5.11528 14.5334L1.78986 12.8172C1.34492 12.5875 0.77097 12.7171 0.50845 13.1067C0.24593 13.4963 0.394034 13.9984 0.83922 14.2281L3.25331 15.4738L0.468024 16.8812C0.0204673 17.1073 -0.132877 17.6082 0.125525 17.9999C0.298833 18.2627 0.613383 18.4095 0.936792 18.4095C1.0955 18.4095 1.25646 18.3741 1.40381 18.2997L4.1891 16.8922L4.21442 19.345C4.21904 19.7948 4.63715 20.1567 5.14996 20.1567C5.15283 20.1567 5.1557 20.1567 5.15857 20.1566C5.67538 20.1526 6.09062 19.7826 6.08588 19.3303L6.05107 15.9514L11.0641 13.4183V18.4842L7.7033 20.1467C7.25337 20.3692 7.09478 20.8688 7.34907 21.2627C7.52113 21.5291 7.83817 21.6789 8.16458 21.6789C8.32054 21.6789 8.47875 21.6447 8.62424 21.5727L11.0643 20.3658V23.181C11.0643 23.6333 11.4833 24 12.0001 24C12.5169 24 12.9359 23.6333 12.9359 23.181V20.3658L15.3759 21.5727C15.5214 21.6447 15.6795 21.6789 15.8356 21.6789C16.162 21.6789 16.479 21.5291 16.6511 21.2627C16.9053 20.8689 16.7468 20.3692 16.2968 20.1467L12.9359 18.4842V13.4184L17.9488 15.9514L17.9131 19.3302C17.9083 19.7825 18.3234 20.1526 18.8402 20.1567C18.8432 20.1568 18.846 20.1568 18.849 20.1568C19.3617 20.1568 19.7798 19.795 19.7846 19.3454L19.8105 16.8922L22.5962 18.2998C22.7435 18.3743 22.9045 18.4096 23.0632 18.4096C23.3866 18.4096 23.7012 18.2627 23.8745 18C24.1329 17.6083 23.9795 17.1074 23.5319 16.8813Z" fill="black"/>
</svg>
