<svg width="24" height="24" viewBox="0 0 24 24" fill="none" xmlns="http://www.w3.org/2000/svg">
<path d="M14 15.7499C13.4487 15.7499 13 16.423 13 17.2499C13 18.0768 13.4487 18.7499 14 18.7499C14.5512 18.7499 15 18.0768 15 17.2499C15 16.423 14.5512 15.7499 14 15.7499ZM9.99997 15.7499C9.44872 15.7499 8.99999 16.423 8.99999 17.2499C8.99999 18.0768 9.44872 18.7499 9.99997 18.7499C10.5512 18.7499 11 18.0768 11 17.2499C11 16.423 10.5513 15.7499 9.99997 15.7499ZM22.1689 2.60374C22.0371 1.11909 21.185 0 20.1865 0H8.49997C8.2236 0 7.99996 0.335461 7.99996 0.750024C7.99996 1.16459 8.2236 1.50005 8.49997 1.50005H20.1865C20.6855 1.50005 21.1118 2.0596 21.1777 2.80153L21.8623 10.5001H8.49997C3.813 10.5 0 16.2194 0 23.25C0 23.6645 0.22364 24 0.500015 24H23.5C23.6441 24 23.7813 23.907 23.876 23.7444C23.9712 23.5811 24.0146 23.365 23.9956 23.1511L22.1689 2.60374ZM1.01662 22.5C1.2749 16.645 4.53271 12 8.49997 12H21.9956L22.9287 22.5H1.01662V22.5Z" fill="#222222"/>
</svg>
