<svg width="24" height="24" viewBox="0 0 24 24" fill="none" xmlns="http://www.w3.org/2000/svg">
<path d="M20.1691 6.25744L19.0892 5.43244V2.15625H20.2083C20.5496 2.15625 20.8769 2.04266 21.1183 1.84047C21.3596 1.63829 21.4952 1.36406 21.4952 1.07812C21.4952 0.792188 21.3596 0.517963 21.1183 0.315776C20.8769 0.113588 20.5496 0 20.2083 0L15.4971 0C14.1924 1.71471e-05 12.9028 0.23373 11.7148 0.685465C10.5268 1.1372 9.46788 1.79651 8.60897 2.61919C8.57504 2.6516 8.54907 2.6893 8.53256 2.73013C8.51604 2.77095 8.50929 2.81411 8.5127 2.85713C8.51611 2.90014 8.52961 2.94217 8.55242 2.98081C8.57524 3.01945 8.60693 3.05394 8.64568 3.08231L9.99352 4.06987C10.0649 4.12215 10.1565 4.15099 10.2514 4.15106H10.2776C10.3812 4.14523 10.4778 4.10517 10.5461 4.03969C11.14 3.47113 11.8672 3.01099 12.6824 2.68789C13.4976 2.36478 14.3835 2.1856 15.2849 2.1615V5.43187L14.2049 6.25687C12.9994 7.18012 12.0364 8.30338 11.377 9.55524C10.7176 10.8071 10.3764 12.1602 10.3749 13.5285V18.6334C10.0347 18.456 9.64526 18.3558 9.24484 18.3426C8.45118 16.2238 6.07107 15.6354 5.96632 15.6105C5.89693 15.594 5.82344 15.5938 5.75397 15.6101C5.68449 15.6263 5.62172 15.6584 5.57257 15.7026C5.52343 15.7468 5.48982 15.8016 5.47545 15.8608C5.46108 15.92 5.46651 15.9814 5.49115 16.0382C5.68878 16.4934 5.35954 17.3274 4.58669 18.3411H4.04146C3.4242 18.3419 2.83252 18.5477 2.39615 18.9134C1.95979 19.2791 1.71438 19.7749 1.71372 20.292C1.71354 20.4394 1.73359 20.5864 1.77349 20.73C1.38826 20.8089 1.03351 20.969 0.742951 21.1951C0.452387 21.4211 0.235659 21.7057 0.11336 22.0217C-0.00893889 22.3378 -0.0327462 22.6747 0.0442002 23.0006C0.121147 23.3265 0.296291 23.6305 0.552991 23.8837C0.589655 23.9201 0.635309 23.9493 0.686787 23.9694C0.738265 23.9894 0.794338 23.9999 0.85112 24H22.4892C22.8898 23.9996 23.2738 23.8661 23.557 23.6289C23.8402 23.3916 23.9995 23.0699 24 22.7344V13.5281C23.9983 12.1599 23.6568 10.807 22.9973 9.55528C22.3378 8.30359 21.3746 7.18051 20.1691 6.25744V6.25744ZM18.3058 5.21512H16.0676V2.15625H18.3058V5.21512ZM10.2223 3.36563L9.46307 2.80931C10.244 2.12858 11.181 1.58699 12.2178 1.21702C13.2547 0.847042 14.3701 0.656307 15.4971 0.65625H20.2078C20.3414 0.65625 20.4695 0.700697 20.5639 0.779814C20.6583 0.858931 20.7114 0.966237 20.7114 1.07812C20.7114 1.19001 20.6583 1.29732 20.5639 1.37644C20.4695 1.45555 20.3414 1.5 20.2078 1.5H15.4971C14.5136 1.5 13.5402 1.6651 12.6342 1.98553C11.7283 2.30596 10.9081 2.77523 10.2223 3.36563V3.36563ZM0.782631 22.6232C0.784212 22.2833 0.944708 21.9576 1.22969 21.7157C1.51468 21.4738 1.90146 21.3352 2.30707 21.3294C2.37308 21.3287 2.4378 21.314 2.49521 21.2867C2.55262 21.2594 2.60086 21.2204 2.63545 21.1733C2.67004 21.1262 2.68986 21.0725 2.69306 21.0173C2.69626 20.962 2.68275 20.907 2.65377 20.8573C2.55045 20.6813 2.49685 20.4878 2.4971 20.2916C2.49751 19.9485 2.66032 19.6196 2.94982 19.3769C3.23932 19.1342 3.63189 18.9975 4.04146 18.9969H4.79932C4.86398 18.9969 4.92764 18.9835 4.98462 18.9579C5.0416 18.9323 5.09012 18.8953 5.12587 18.8501C5.88686 17.8892 6.28795 17.0835 6.32801 16.4443C6.87747 16.6707 7.36207 16.9938 7.74868 17.3915C8.13529 17.7893 8.41477 18.2523 8.56801 18.7489C8.58924 18.8199 8.63823 18.883 8.70718 18.928C8.77614 18.973 8.86108 18.9974 8.94851 18.9973H9.15465C9.56419 18.998 9.95673 19.1346 10.2462 19.3773C10.5357 19.62 10.6985 19.9489 10.699 20.292C10.6985 20.431 10.6709 20.569 10.6171 20.7006H6.42649C6.32261 20.7006 6.22299 20.7351 6.14953 20.7967C6.07607 20.8582 6.03481 20.9417 6.03481 21.0287C6.03481 21.1157 6.07607 21.1992 6.14953 21.2607C6.22299 21.3222 6.32261 21.3568 6.42649 21.3568H10.8308C11.0799 21.3983 11.3128 21.4907 11.509 21.6258C11.7051 21.761 11.8583 21.9346 11.955 22.1313C12.0517 22.328 12.0888 22.5416 12.0631 22.7533C12.0375 22.9649 11.9498 23.1679 11.8078 23.3443H1.04517C0.87414 23.1311 0.782745 22.8801 0.782631 22.6232V22.6232ZM23.2166 22.734C23.2164 22.8956 23.1397 23.0504 23.0033 23.1647C22.8669 23.2789 22.6821 23.3432 22.4892 23.3434H12.6859C12.8853 22.9289 12.9072 22.4694 12.7481 22.0429C12.8188 22.0953 12.9099 22.1244 13.0044 22.1246H21.3697C21.4735 22.1246 21.5732 22.0901 21.6466 22.0285C21.7201 21.967 21.7613 21.8835 21.7613 21.7965V13.5278C21.7613 13.4407 21.7201 13.3573 21.6466 13.2957C21.5732 13.2342 21.4735 13.1996 21.3697 13.1996H13.0048C12.9534 13.1996 12.9024 13.2081 12.8549 13.2246C12.8073 13.241 12.7642 13.2652 12.7278 13.2957C12.6914 13.3261 12.6626 13.3623 12.6429 13.4022C12.6232 13.442 12.6131 13.4847 12.6131 13.5278V21.759C12.3602 21.3296 11.9275 20.9931 11.3976 20.8136C11.4817 20.5612 11.5039 20.2971 11.4628 20.0373C11.4216 19.7775 11.3181 19.5273 11.1583 19.302V13.527C11.16 12.2503 11.4786 10.9878 12.094 9.81978C12.7094 8.65177 13.6081 7.60375 14.7329 6.74231L15.8283 5.90494H18.5464L19.6418 6.74231C20.7669 7.6039 21.6657 8.65216 22.2812 9.82045C22.8966 10.9887 23.2152 12.2515 23.2166 13.5285V22.734ZM13.3965 21.4688V13.8563H20.9784V21.4688H13.3965Z" fill="black"/>
</svg>
