<svg width="24" height="24" viewBox="0 0 24 24" fill="none" xmlns="http://www.w3.org/2000/svg">
<g clip-path="url(#clip0)">
<path d="M9.52882 12.8201C9.72298 12.8201 9.88039 12.6626 9.88039 12.4685V2.82218C9.88039 1.65374 10.831 0.703141 11.9995 0.703141C13.1679 0.703141 14.1185 1.65374 14.1185 2.82218V4.23783C14.1185 4.43199 14.2759 4.5894 14.4701 4.5894C14.6643 4.5894 14.8216 4.43199 14.8216 4.23783V2.82218C14.8216 1.26603 13.5556 0 11.9995 0C10.4433 0 9.17725 1.26603 9.17725 2.82218V12.4685C9.17725 12.6626 9.33466 12.8201 9.52882 12.8201Z" fill="black"/>
<path d="M15.1641 14.9889C14.9466 14.8145 14.8219 14.5594 14.8219 14.2889V5.64405C14.8219 5.44989 14.6645 5.29248 14.4703 5.29248C14.2761 5.29248 14.1188 5.44989 14.1188 5.64405V14.2889C14.1188 14.7738 14.3395 15.2289 14.7242 15.5374C15.7623 16.3701 16.3577 17.6098 16.3577 18.9388C16.3577 20.1143 15.8967 21.2163 15.0597 22.0419C14.2227 22.8672 13.1133 23.3116 11.9375 23.2964C9.59072 23.2637 7.66369 21.3274 7.64184 18.9802C7.62933 17.6333 8.22582 16.3776 9.27833 15.535C9.66108 15.2285 9.88064 14.7744 9.88064 14.2891V13.8747C9.88064 13.6805 9.72323 13.5231 9.52907 13.5231C9.33491 13.5231 9.1775 13.6805 9.1775 13.8747V14.2891C9.1775 14.5597 9.05408 14.8137 8.83887 14.986C7.61676 15.9644 6.92417 17.4226 6.9387 18.9868C6.95098 20.3102 7.4759 21.5596 8.41666 22.5049C9.35746 23.4502 10.6044 23.981 11.9277 23.9994C11.952 23.9998 11.9761 23.9999 12.0003 23.9999C13.3393 23.9999 14.5987 23.484 15.5534 22.5425C16.5255 21.5838 17.0608 20.304 17.0608 18.9388C17.0609 17.3954 16.3696 15.9557 15.1641 14.9889V14.9889Z" fill="black"/>
<path d="M12.9167 1.86995C12.6554 1.61832 12.3117 1.4872 11.9493 1.50099C11.2364 1.52794 10.6779 2.11872 10.6779 2.846V15.0745C10.6779 15.3845 10.5205 15.6667 10.2567 15.8295L10.1329 15.906C9.06056 16.568 8.42741 17.7145 8.43912 18.9728C8.45689 20.8908 10.0314 22.4728 11.949 22.4996C11.9662 22.4998 12.0002 22.4999 12.0003 22.4999C13.0191 22.4999 13.958 22.0826 14.644 21.3248C15.1913 20.7201 15.5154 19.9385 15.5566 19.1239C15.6222 17.8228 14.9749 16.5898 13.8674 15.906L13.7434 15.8295C13.4797 15.6667 13.3223 15.3844 13.3223 15.0745V2.82214C13.3223 2.45993 13.1782 2.12177 12.9167 1.86995V1.86995ZM11.9759 2.20361C11.984 2.20333 11.9921 2.20314 12.0001 2.20314C12.1609 2.20314 12.3124 2.26418 12.429 2.37644C12.5516 2.49448 12.6191 2.65278 12.6191 2.82214V4.32865H11.3811V2.84595C11.3811 2.50413 11.6479 2.21599 11.9759 2.20361V2.20361ZM13.374 16.4278L13.4979 16.5043C14.4008 17.0617 14.9078 18.0278 14.8544 19.0884C14.8214 19.7415 14.5615 20.3681 14.1227 20.8529C13.5718 21.4616 12.818 21.7968 12.0013 21.7968C12.0003 21.7968 11.9729 21.7968 11.9592 21.7966C11.9591 21.7966 11.959 21.7966 11.9589 21.7966C10.4201 21.7751 9.15656 20.5055 9.14231 18.9664C9.13289 17.9564 9.64131 17.036 10.5024 16.5044L10.6263 16.4279C11.099 16.136 11.3812 15.6301 11.3812 15.0746V5.03183H12.6192V5.80946H12.3517C12.1575 5.80946 12.0002 5.96687 12.0002 6.16103C12.0002 6.35519 12.1575 6.5126 12.3517 6.5126H12.6192V7.49658H12.3517C12.1575 7.49658 12.0002 7.65399 12.0002 7.84815C12.0002 8.04231 12.1575 8.19972 12.3517 8.19972H12.6192V9.1837H12.3517C12.1575 9.1837 12.0002 9.34111 12.0002 9.53527C12.0002 9.72943 12.1575 9.88684 12.3517 9.88684H12.6192V10.8708H12.3517C12.1575 10.8708 12.0002 11.0282 12.0002 11.2224C12.0002 11.4165 12.1575 11.574 12.3517 11.574H12.6192V12.5579H12.3517C12.1575 12.5579 12.0002 12.7153 12.0002 12.9095C12.0002 13.1037 12.1575 13.2611 12.3517 13.2611H12.6192V15.0746C12.6191 15.6301 12.9013 16.1359 13.374 16.4278V16.4278Z" fill="black"/>
</g>
<defs>
<clipPath id="clip0">
<rect width="24" height="24" fill="white"/>
</clipPath>
</defs>
</svg>
