<svg width="24" height="24" viewBox="0 0 24 24" fill="none" xmlns="http://www.w3.org/2000/svg">
<path d="M12 3C15.947 3 19.678 4.507 22.604 7.263L21.937 7.966C19.186 5.427 15.695 4.042 12 4.042C8.305 4.042 4.814 5.427 2.063 7.966L1.396 7.263C4.322 4.507 8.053 3 12 3ZM12 8.411C14.577 8.411 17.019 9.359 18.968 11.098L18.242 11.863C16.485 10.354 14.304 9.534 12 9.534C9.696 9.534 7.515 10.354 5.757 11.863L5.031 11.098C6.981 9.359 9.423 8.411 12 8.411ZM12 13.923C13.179 13.923 14.304 14.308 15.248 15.023L14.543 15.767C13.792 15.263 12.917 14.992 12.001 14.992C11.085 14.992 10.209 15.263 9.459 15.767L8.754 15.023C9.696 14.308 10.821 13.923 12 13.923ZM12 19.154C12.509 19.154 12.923 19.568 12.923 20.077C12.923 20.586 12.509 21 12 21C11.491 21 11.077 20.586 11.077 20.077C11.077 19.568 11.491 19.154 12 19.154ZM12 2C7.314 2 3.071 4.004 0 7.244L2.039 9.394C4.588 6.706 8.11 5.042 12 5.042C15.89 5.042 19.412 6.706 21.961 9.395L24 7.244C20.929 4.004 16.687 2 12 2ZM12 7.411C8.73 7.411 5.77 8.809 3.627 11.07L5.72 13.278C7.327 11.582 9.547 10.534 12 10.534C14.453 10.534 16.673 11.582 18.28 13.278L20.373 11.07C18.23 8.809 15.27 7.411 12 7.411ZM12 12.923C10.173 12.923 8.519 13.705 7.322 14.967L9.379 17.137C10.05 16.429 10.977 15.992 12.001 15.992C13.024 15.992 13.952 16.429 14.623 17.137L16.68 14.967C15.481 13.705 13.827 12.923 12 12.923ZM12 18.154C10.938 18.154 10.077 19.015 10.077 20.077C10.077 21.139 10.938 22 12 22C13.062 22 13.923 21.139 13.923 20.077C13.923 19.015 13.062 18.154 12 18.154Z" fill="black"/>
</svg>
