<svg width="24" height="22" viewBox="0 0 24 22" fill="none" xmlns="http://www.w3.org/2000/svg">
<path d="M23.961 15.171C23.998 15.072 24.011 14.963 23.977 14.853L22 8.42794V2.49998C22 1.122 20.879 0 19.5 0H4.5C3.12098 0 2.00002 1.122 2.00002 2.49998V8.42798L0.0230156 14.853C-0.0109688 14.9619 0.00201563 15.071 0.039 15.171C0.015 15.277 0 15.386 0 15.5V19.5V21.5C0 21.776 0.224016 22 0.500016 22H2.50003C2.77598 22 3 21.776 3 21.5V20H21V21.5C21 21.776 21.224 22 21.5 22H23.5C23.776 22 24 21.776 24 21.5V19.5V15.5C24 15.386 23.985 15.277 23.961 15.171ZM3 2.49998C3 1.67297 3.67298 0.999984 4.5 0.999984H19.5C20.327 0.999984 21 1.67297 21 2.49998V7.99997H19.641L19.175 6.13598C19.007 5.46698 18.408 4.99997 17.719 4.99997H14.5C13.673 4.99997 13 5.67295 13 6.49997V7.99997H11V6.50095C11 5.67394 10.327 5.00095 9.49997 5.00095H6.28097C5.59195 5.00095 4.99298 5.46895 4.82498 6.13697L4.359 7.99997H3V2.49998ZM18.614 8.80795C18.518 8.92997 18.374 8.99995 18.219 8.99995H14.5C14.225 8.99995 14 8.77594 14 8.49994V6.49997C14 6.22397 14.225 5.99995 14.5 5.99995H17.72C17.95 5.99995 18.149 6.15497 18.205 6.37795L18.705 8.37797C18.743 8.52895 18.71 8.68495 18.614 8.80795ZM10.001 6.49997V8.49497C10.001 8.49698 10 8.49797 10 8.49998C10 8.50097 10 8.502 10 8.502C9.99905 8.77702 9.77503 9 9.50105 9H5.78203C5.62603 9 5.48302 8.93002 5.38702 8.808C5.29102 8.685 5.25802 8.52802 5.29603 8.37802L5.79605 6.378C5.85206 6.156 6.05105 6 6.28205 6H9.50105C9.77602 5.99995 10.001 6.22397 10.001 6.49997ZM2.86898 8.99995H4.374C4.42702 9.14995 4.49602 9.29395 4.59698 9.42394C4.88498 9.78994 5.316 9.99994 5.781 9.99994H9.50002C10.151 9.99994 10.701 9.57994 10.908 8.99995H13.092C13.299 9.58097 13.849 9.99994 14.5 9.99994H18.219C18.684 9.99994 19.114 9.78994 19.402 9.42394C19.503 9.29494 19.572 9.14995 19.625 8.99995H21.131L22.675 14.018C22.617 14.011 22.56 14 22.5 14H1.5C1.44 14 1.383 14.011 1.326 14.018L2.86898 8.99995ZM2.00002 21H0.999984V20H1.99997V21H2.00002ZM23 21H22V20H23V21ZM23 19H0.999984V15.5C0.999984 15.224 1.22498 15 1.5 15H22.5C22.775 15 23 15.224 23 15.5V19Z" fill="black"/>
</svg>
