<svg width="24" height="18" viewBox="0 0 24 18" fill="none" xmlns="http://www.w3.org/2000/svg">
<path d="M16 13H13V18H11V13H8L12 9L16 13ZM19.479 7.092C19.267 3.141 16.006 0 12 0C7.994 0 4.733 3.141 4.521 7.092C1.951 7.555 0 9.798 0 12.5C0 15.537 2.463 18 5.5 18H9V16H5.5C3.57 16 2 14.43 2 12.5C2 9.703 4.479 8.667 6.433 8.78C6.266 4.562 8.641 2 12 2C15.453 2 17.891 4.797 17.567 8.78C19.312 8.734 22 9.531 22 12.5C22 14.43 20.43 16 18.5 16H15V18H18.5C21.537 18 24 15.537 24 12.5C24 9.798 22.049 7.555 19.479 7.092Z" fill="white"/>
</svg>
