<svg width="12" height="13" viewBox="0 0 12 13" fill="none" xmlns="http://www.w3.org/2000/svg">
<path d="M12 10.94L8.79976 7.763C9.26824 7.0305 9.53875 6.163 9.53875 5.2335C9.53925 2.624 7.39938 0.5 4.76937 0.5C2.13937 0.5 0 2.624 0 5.234C0 7.8445 2.13937 9.9685 4.76937 9.9685C5.65998 9.9685 6.49265 9.725 7.20695 9.302L10.4288 12.5L12 10.94ZM1.77718 5.234C1.77718 3.5975 3.11964 2.265 4.76887 2.265C6.4186 2.265 7.76106 3.597 7.76106 5.234C7.76106 6.8715 6.4186 8.2035 4.76887 8.2035C3.11964 8.2035 1.77718 6.8715 1.77718 5.234Z" fill="white"/>
</svg>
