<svg width="6" height="10" viewBox="0 0 6 10" fill="none" xmlns="http://www.w3.org/2000/svg">
<path d="M0.113883 5.27442L4.73918 9.88692C4.89072 10.038 5.13607 10.0377 5.28736 9.88614C5.43853 9.73459 5.43814 9.48911 5.28658 9.33795L0.936594 4.99998L5.28673 0.662032C5.43828 0.510861 5.43867 0.26553 5.28751 0.113968C5.21168 0.0379917 5.11232 3.09959e-06 5.01296 3.09959e-06C4.91386 3.09959e-06 4.8149 0.0377376 4.7392 0.113187L0.113883 4.72557C0.0408946 4.79819 -6.25678e-05 4.89701 -6.25678e-05 4.99998C-6.25678e-05 5.10295 0.0410118 5.20166 0.113883 5.27442Z" fill="black"/>
</svg>
