<svg width="67" height="19" viewBox="0 0 67 19" fill="none" xmlns="http://www.w3.org/2000/svg">
<path d="M9.84 13.92V10.44C9.12 9.48 8.16 9 6.96 9C6.08 9 5.36 9.32 4.8 9.96C4.24 10.584 3.96 11.328 3.96 12.192C3.96 13.104 4.248 13.864 4.824 14.472C5.416 15.064 6.152 15.36 7.032 15.36C8.232 15.36 9.168 14.88 9.84 13.92ZM12.96 6.36V18H9.96V17.064C9.032 17.848 7.952 18.24 6.72 18.24C4.928 18.24 3.464 17.584 2.328 16.272C1.336 15.12 0.84 13.76 0.84 12.192C0.84 10.48 1.392 9.04 2.496 7.872C3.616 6.704 4.968 6.12 6.552 6.12C7.864 6.12 9 6.512 9.96 7.296V6.36H12.96ZM18.0056 6.36V18H14.8856V6.36H18.0056ZM15.0056 3.648C14.6056 3.264 14.4056 2.792 14.4056 2.232C14.4056 1.672 14.6056 1.2 15.0056 0.816C15.4056 0.432 15.8856 0.24 16.4456 0.24C17.0056 0.24 17.4856 0.432 17.8856 0.816C18.2856 1.2 18.4856 1.672 18.4856 2.232C18.4856 2.792 18.2856 3.264 17.8856 3.648C17.4856 4.032 17.0056 4.224 16.4456 4.224C15.8856 4.224 15.4056 4.032 15.0056 3.648ZM27.3722 6.216L27.0122 9.12C26.7722 9.04 26.3962 9 25.8842 9C25.2602 9 24.6842 9.176 24.1562 9.528C23.6442 9.88 23.2762 10.264 23.0522 10.68V18H19.9322V6.36H22.9322V7.536C23.7002 6.592 24.8282 6.12 26.3162 6.12C26.5722 6.12 26.9242 6.152 27.3722 6.216ZM31.2159 10.44V13.92C31.8879 14.88 32.8239 15.36 34.0239 15.36C34.9039 15.36 35.6319 15.064 36.2079 14.472C36.7999 13.864 37.0959 13.104 37.0959 12.192C37.0959 11.328 36.8159 10.584 36.2559 9.96C35.6959 9.32 34.9759 9 34.0959 9C32.8959 9 31.9359 9.48 31.2159 10.44ZM31.0959 18H28.0959V0.959999H31.2159V7.2C32.1279 6.48 33.2239 6.12 34.5039 6.12C36.0879 6.12 37.4319 6.704 38.5359 7.872C39.6559 9.04 40.2159 10.48 40.2159 12.192C40.2159 13.76 39.7199 15.12 38.7279 16.272C37.5919 17.584 36.1279 18.24 34.3359 18.24C33.1039 18.24 32.0239 17.848 31.0959 17.064V18ZM44.3016 18H41.1816V6.36H44.1816V7.296C45.1416 6.512 46.2376 6.12 47.4696 6.12C49.1176 6.12 50.4616 6.744 51.5016 7.992C52.3016 8.936 52.7016 10.296 52.7016 12.072V18H49.5816V11.832C49.5816 10.84 49.3496 10.112 48.8856 9.648C48.4536 9.216 47.8696 9 47.1336 9C46.5416 9 45.9816 9.152 45.4536 9.456C44.9416 9.744 44.5576 10.072 44.3016 10.44V18ZM57.5044 10.44V13.92C58.1764 14.88 59.1124 15.36 60.3124 15.36C61.1924 15.36 61.9204 15.064 62.4964 14.472C63.0884 13.864 63.3844 13.104 63.3844 12.192C63.3844 11.328 63.1044 10.584 62.5444 9.96C61.9844 9.32 61.2644 9 60.3844 9C59.1844 9 58.2244 9.48 57.5044 10.44ZM57.3844 18H54.3844V0.959999H57.5044V7.2C58.4164 6.48 59.5124 6.12 60.7924 6.12C62.3764 6.12 63.7204 6.704 64.8244 7.872C65.9444 9.04 66.5044 10.48 66.5044 12.192C66.5044 13.76 66.0084 15.12 65.0164 16.272C63.8804 17.584 62.4164 18.24 60.6244 18.24C59.3924 18.24 58.3124 17.848 57.3844 17.064V18Z" fill="#FF395B"/>
</svg>
