<svg width="16" height="8" viewBox="0 0 16 8" fill="none" xmlns="http://www.w3.org/2000/svg">
<path d="M15.8395 4.31135C15.755 4.38259 15.6518 4.41731 15.5494 4.41731C15.421 4.41731 15.2934 4.36275 15.2042 4.25679L14.0225 2.85308C13.5072 3.32155 12.8568 3.78776 12.0506 4.17045L12.7248 5.80378C12.8198 6.03395 12.7103 6.29761 12.4801 6.39263C12.4237 6.41585 12.3655 6.4269 12.3082 6.4269C12.1311 6.4269 11.9631 6.32184 11.8913 6.14791L11.2167 4.5138C10.3924 4.80248 9.43326 4.99816 8.3242 5.04054V6.78614C8.3242 7.03514 8.12232 7.23702 7.87332 7.23702C7.62432 7.23702 7.42243 7.03514 7.42243 6.78614V5.04054C6.41144 5.00188 5.52658 4.83483 4.75332 4.58695L4.109 6.14791C4.0372 6.32184 3.86925 6.4269 3.69205 6.4269C3.63467 6.4269 3.57651 6.41585 3.52015 6.39263C3.28997 6.29761 3.18041 6.03395 3.27543 5.80378L3.90926 4.26818C3.07964 3.90274 2.40703 3.4469 1.86958 2.98158L0.796025 4.25679C0.706862 4.36264 0.579262 4.41731 0.450873 4.41731C0.348297 4.41731 0.24527 4.38248 0.16073 4.31135C-0.0297686 4.15095 -0.0542289 3.86655 0.106173 3.67606L1.22031 2.35271C0.413112 1.47507 0.0688621 0.704059 0.0367367 0.629325C-0.0615559 0.400615 0.0441763 0.135382 0.273 0.0370891C0.50171 -0.0614289 0.766943 0.0445288 0.865235 0.273352C0.895782 0.343239 1.24691 1.11774 2.08848 1.95616C2.10009 1.96417 2.11238 1.9707 2.12343 1.97995C2.15307 2.00497 2.17731 2.03371 2.19884 2.06381C2.77845 2.61637 3.5729 3.18381 4.63022 3.58723C4.64443 3.59152 4.65874 3.59422 4.67283 3.59997C4.67847 3.60234 4.6832 3.60594 4.68873 3.60854C5.56412 3.93475 6.61535 4.14892 7.8732 4.14892C13.1546 4.14892 14.8645 0.311903 14.8811 0.273127C14.9794 0.0444162 15.2447 -0.061767 15.4733 0.0368638C15.7021 0.135156 15.8079 0.400388 15.7096 0.629099C15.6792 0.699662 15.3702 1.39109 14.6567 2.20651L15.8937 3.67583C16.0545 3.86656 16.03 4.15095 15.8395 4.31135Z" fill="black"/>
</svg>
