<svg width="16" height="10" viewBox="0 0 16 10" fill="none" xmlns="http://www.w3.org/2000/svg">
<path d="M15.941 4.81067C15.815 4.62732 12.7869 0.333252 8.00021 0.333252C3.8928 0.333252 0.23274 4.60266 0.0787376 4.78466C-0.0259203 4.90867 -0.0259203 5.09067 0.0787376 5.21533C0.23274 5.39733 3.8928 9.66674 8.00021 9.66674C12.1076 9.66674 15.7676 5.39733 15.9216 5.21533C16.0183 5.10067 16.027 4.93467 15.941 4.81067ZM8.00021 9.00007C4.7075 9.00007 1.57676 5.86002 0.781436 5.00001C1.57545 4.13934 4.70284 0.99995 8.00021 0.99995C11.8529 0.99995 14.5723 4.13534 15.2363 4.98201C14.4696 5.81468 11.3209 9.00007 8.00021 9.00007Z" fill="black"/>
<path d="M7.99996 2.33325C6.52927 2.33325 5.33325 3.52927 5.33325 4.99996C5.33325 6.47064 6.52927 7.66666 7.99996 7.66666C9.47064 7.66666 10.6667 6.47064 10.6667 4.99996C10.6667 3.52927 9.47064 2.33325 7.99996 2.33325ZM7.99996 7.00003C6.89728 7.00003 5.99992 6.10267 5.99992 4.99999C5.99992 3.89731 6.89728 2.99995 7.99996 2.99995C9.10263 2.99995 9.99999 3.89731 9.99999 4.99999C9.99999 6.10267 9.10263 7.00003 7.99996 7.00003Z" fill="black"/>
</svg>
