<svg width="30" height="32" viewBox="0 0 30 32" fill="none" xmlns="http://www.w3.org/2000/svg">
<path d="M29.576 22.7427C29.4144 22.3584 29.2528 21.9419 29.0912 21.5896C28.8326 21.013 28.5741 20.4685 28.3478 19.956L28.3155 19.9239C26.0854 15.1191 23.6937 10.2502 21.1727 5.44545L21.0757 5.25325C20.8171 4.77277 20.5586 4.26026 20.3 3.74775C19.9768 3.17117 19.6536 2.56256 19.1365 1.98599C18.1022 0.704705 16.6155 0 15.0317 0C13.4157 0 11.9613 0.704705 10.8947 1.92192C10.4099 2.4985 10.0544 3.10711 9.73118 3.68368C9.47261 4.1962 9.21405 4.70871 8.95549 5.18919L8.85852 5.38138C6.36984 10.1862 3.9458 15.0551 1.71568 19.8599L1.68336 19.9239C1.45712 20.4364 1.19855 20.981 0.939989 21.5576C0.778387 21.9099 0.616784 22.2943 0.455181 22.7107C0.0350139 23.8959 -0.0942683 25.017 0.0673345 26.1702C0.422861 28.5726 2.03889 30.5906 4.26901 31.4875C5.10934 31.8398 5.982 32 6.88697 32C7.14553 32 7.46874 31.968 7.7273 31.9359C8.79388 31.8078 9.89278 31.4555 10.9594 30.8468C12.2845 30.1101 13.545 29.0531 14.9671 27.5155C16.3892 29.0531 17.682 30.1101 18.9749 30.8468C20.0414 31.4555 21.1403 31.8078 22.2069 31.9359C22.4655 31.968 22.7887 32 23.0472 32C23.9522 32 24.8572 31.8398 25.6652 31.4875C27.9276 30.5906 29.5114 28.5405 29.8669 26.1702C30.1254 25.049 29.9962 23.9279 29.576 22.7427ZM14.9994 24.4084C13.2541 22.2302 12.1229 20.1802 11.7351 18.4504C11.5735 17.7137 11.5411 17.0731 11.6381 16.4965C11.7027 15.984 11.8967 15.5355 12.1552 15.1512C12.7693 14.2863 13.8036 13.7417 14.9994 13.7417C16.1953 13.7417 17.2619 14.2543 17.8436 15.1512C18.1022 15.5355 18.2961 15.984 18.3608 16.4965C18.4577 17.0731 18.4254 17.7457 18.2638 18.4504C17.876 20.1481 16.7447 22.1982 14.9994 24.4084ZM27.8953 25.9139C27.6691 27.5796 26.5379 29.021 24.9542 29.6617C24.1785 29.982 23.3381 30.0781 22.4978 29.982C21.6898 29.8859 20.8818 29.6296 20.0414 29.1491C18.8779 28.5085 17.7144 27.5155 16.3569 26.042C18.49 23.4474 19.7829 21.0771 20.2677 18.963C20.4939 17.97 20.5262 17.0731 20.4293 16.2402C20.3 15.4394 20.0091 14.7027 19.5566 14.0621C18.5547 12.6206 16.874 11.7878 14.9994 11.7878C13.1248 11.7878 11.4442 12.6527 10.4422 14.0621C9.98974 14.7027 9.69886 15.4394 9.56958 16.2402C9.44029 17.0731 9.47261 18.002 9.73118 18.963C10.216 21.0771 11.5411 23.4795 13.642 26.0741C12.3168 27.5475 11.121 28.5405 9.95742 29.1812C9.11709 29.6617 8.30908 29.9179 7.50106 30.014C6.62841 30.1101 5.78807 29.982 5.0447 29.6937C3.46099 29.0531 2.32977 27.6116 2.10353 25.9459C2.00657 25.1451 2.07121 24.3443 2.39441 23.4474C2.49138 23.1271 2.65298 22.8068 2.81458 22.4224C3.04082 21.9099 3.29939 21.3654 3.55795 20.8208L3.59027 20.7568C5.82039 15.984 8.21211 11.1151 10.7008 6.37437L10.7978 6.18218C11.0563 5.7017 11.3149 5.18919 11.5735 4.70871C11.832 4.1962 12.1229 3.71572 12.4784 3.2993C13.1572 2.53053 14.0621 2.11411 15.0641 2.11411C16.066 2.11411 16.971 2.53053 17.6497 3.2993C18.0052 3.71572 18.2961 4.1962 18.5547 4.70871C18.8133 5.18919 19.0718 5.7017 19.3304 6.18218L19.4273 6.37437C21.8837 11.1471 24.2754 16.016 26.5055 20.7888V20.8208C26.7641 21.3333 26.9904 21.9099 27.2489 22.4224C27.4105 22.8068 27.5721 23.1271 27.6691 23.4474C27.9276 24.2803 28.0246 25.0811 27.8953 25.9139Z" fill="#FF5A5F"/>
</svg>
